<?xml version="1.0" encoding="utf-8"?>
<!-- Generator: Adobe Illustrator 21.1.0, SVG Export Plug-In . SVG Version: 6.00 Build 0)  -->
<svg version="1.1" id="Layer_1" xmlns="http://www.w3.org/2000/svg" xmlns:xlink="http://www.w3.org/1999/xlink" x="0px" y="0px"
	 viewBox="0 0 252 144" style="enable-background:new 0 0 252 144;" xml:space="preserve">
<style type="text/css">
	.st0{fill:#231F20;}
</style>
<path class="st0" d="M38.487,36.307h2.533v24.624h12.666v2.28H38.487V36.307z"/>
<path class="st0" d="M74.871,36.307h2.61l11.438,26.904h-2.84l-2.955-7.144H68.73l-3.07,7.144h-2.648L74.871,36.307z M76.061,39.043
	l-6.333,14.744h12.474L76.061,39.043z"/>
<path class="st0" d="M117.55,52.913c0,1.444-0.167,2.825-0.499,4.142c-0.333,1.317-0.89,2.483-1.67,3.496
	c-0.781,1.014-1.804,1.824-3.07,2.432s-2.821,0.912-4.663,0.912s-3.396-0.304-4.663-0.912s-2.291-1.418-3.07-2.432
	c-0.781-1.013-1.337-2.178-1.67-3.496s-0.499-2.698-0.499-4.142V36.307h2.533v15.96c0,0.963,0.089,1.989,0.269,3.078
	c0.179,1.09,0.53,2.104,1.055,3.04c0.524,0.938,1.267,1.71,2.226,2.318c0.959,0.608,2.232,0.912,3.819,0.912
	c1.586,0,2.859-0.304,3.819-0.912c0.959-0.608,1.701-1.381,2.226-2.318c0.524-0.937,0.876-1.95,1.055-3.04
	c0.179-1.089,0.269-2.115,0.269-3.078v-15.96h2.533V52.913z"/>
<path class="st0" d="M131.174,36.307h7.139c0.358,0,0.845,0.013,1.459,0.038c0.613,0.026,1.278,0.102,1.995,0.228
	c0.717,0.127,1.445,0.33,2.188,0.608s1.407,0.684,1.996,1.216c0.589,0.532,1.075,1.204,1.459,2.014
	c0.384,0.811,0.575,1.799,0.575,2.964c0,1.292-0.225,2.356-0.672,3.192s-1.011,1.514-1.688,2.033
	c-0.678,0.52-1.427,0.906-2.245,1.159c-0.819,0.254-1.6,0.431-2.341,0.532l7.906,12.92h-2.879l-7.638-12.768h-4.721v12.768h-2.533
	V36.307z M133.707,48.163h5.373c1.33,0,2.411-0.165,3.243-0.494c0.831-0.329,1.478-0.734,1.938-1.216
	c0.461-0.481,0.773-1,0.94-1.558c0.166-0.557,0.249-1.064,0.249-1.52s-0.083-0.962-0.249-1.52c-0.167-0.557-0.479-1.077-0.94-1.558
	c-0.461-0.481-1.107-0.886-1.938-1.216c-0.832-0.329-1.913-0.494-3.243-0.494h-5.373V48.163z"/>
<path class="st0" d="M160.611,36.307h16.619v2.28h-14.086v9.576h13.203v2.28h-13.203v10.488h14.699v2.28h-17.232V36.307z"/>
<path class="st0" d="M190.048,36.307h3.263l16.542,23.56h0.076v-23.56h2.533v26.904H209.2l-16.541-23.56h-0.077v23.56h-2.533V36.307
	z"/>
<path class="st0" d="M38.332,67.273h2.146c0.601,0,1.11,0.074,1.529,0.221c0.418,0.147,0.766,0.335,1.043,0.563
	s0.497,0.482,0.657,0.759c0.16,0.278,0.277,0.544,0.353,0.799s0.123,0.485,0.142,0.691c0.02,0.206,0.03,0.351,0.03,0.436
	s-0.01,0.23-0.03,0.436c-0.02,0.206-0.067,0.436-0.142,0.691s-0.192,0.521-0.353,0.799s-0.379,0.531-0.657,0.759
	c-0.278,0.229-0.625,0.417-1.043,0.563c-0.418,0.147-0.928,0.221-1.529,0.221h-2.146V67.273z M38.979,73.624h1.333
	c0.458,0,0.885-0.057,1.284-0.171c0.398-0.114,0.745-0.29,1.039-0.524c0.294-0.235,0.526-0.534,0.696-0.897
	c0.17-0.362,0.255-0.792,0.255-1.289s-0.085-0.926-0.255-1.289c-0.17-0.363-0.402-0.662-0.696-0.897
	c-0.294-0.235-0.64-0.41-1.039-0.524c-0.399-0.114-0.827-0.172-1.284-0.172h-1.333V73.624z"/>
<path class="st0" d="M48.309,67.273h4.243v0.588h-3.597v2.47h3.372v0.588h-3.372v2.705h3.753v0.588h-4.4V67.273z"/>
<path class="st0" d="M56.932,72.928c0.17,0.294,0.391,0.513,0.662,0.656c0.271,0.144,0.58,0.216,0.926,0.216
	c0.215,0,0.418-0.033,0.607-0.098c0.189-0.065,0.354-0.157,0.495-0.274c0.141-0.117,0.251-0.259,0.333-0.426
	c0.082-0.167,0.123-0.354,0.123-0.563c0-0.242-0.051-0.441-0.152-0.598c-0.102-0.157-0.237-0.286-0.407-0.387
	c-0.17-0.101-0.361-0.188-0.573-0.26c-0.212-0.072-0.431-0.144-0.657-0.215s-0.444-0.153-0.657-0.245
	c-0.212-0.091-0.403-0.211-0.573-0.358s-0.306-0.332-0.407-0.554c-0.101-0.222-0.152-0.496-0.152-0.823
	c0-0.307,0.061-0.58,0.181-0.818c0.121-0.239,0.284-0.438,0.49-0.598c0.206-0.16,0.442-0.281,0.71-0.362
	c0.268-0.082,0.549-0.123,0.843-0.123c0.379,0,0.73,0.067,1.054,0.201c0.323,0.134,0.603,0.358,0.838,0.671l-0.559,0.402
	c-0.164-0.229-0.354-0.4-0.573-0.515c-0.219-0.114-0.479-0.171-0.779-0.171c-0.209,0-0.408,0.028-0.598,0.083
	c-0.19,0.056-0.354,0.137-0.495,0.245c-0.141,0.108-0.253,0.244-0.338,0.407c-0.085,0.164-0.127,0.356-0.127,0.579
	c0,0.346,0.088,0.612,0.265,0.798c0.176,0.187,0.396,0.333,0.661,0.441c0.265,0.108,0.552,0.203,0.863,0.284
	c0.31,0.082,0.598,0.191,0.862,0.329s0.485,0.328,0.662,0.573c0.176,0.245,0.264,0.583,0.264,1.014c0,0.314-0.059,0.591-0.176,0.833
	s-0.276,0.446-0.475,0.613c-0.2,0.167-0.43,0.292-0.691,0.377c-0.262,0.085-0.533,0.127-0.813,0.127c-0.458,0-0.879-0.08-1.264-0.24
	c-0.386-0.16-0.715-0.43-0.99-0.809L56.932,72.928z"/>
<path class="st0" d="M64.821,67.273h0.646v6.938h-0.646V67.273z"/>
<path class="st0" d="M75.719,73.761c-0.405,0.229-0.825,0.39-1.259,0.485s-0.877,0.142-1.328,0.142c-0.529,0-1.014-0.09-1.455-0.27
	s-0.818-0.431-1.132-0.754s-0.559-0.709-0.735-1.156c-0.176-0.448-0.264-0.936-0.264-1.465s0.088-1.016,0.264-1.46
	c0.177-0.444,0.422-0.828,0.735-1.152c0.313-0.323,0.691-0.576,1.132-0.759s0.926-0.274,1.455-0.274c1.032,0,1.865,0.32,2.499,0.96
	l-0.47,0.49c-0.104-0.124-0.234-0.24-0.387-0.348s-0.32-0.199-0.5-0.274c-0.18-0.075-0.368-0.134-0.563-0.176
	c-0.196-0.042-0.389-0.064-0.579-0.064c-0.451,0-0.857,0.079-1.22,0.235c-0.363,0.157-0.671,0.372-0.926,0.646
	s-0.451,0.598-0.588,0.97c-0.137,0.373-0.206,0.774-0.206,1.206s0.069,0.833,0.206,1.206c0.137,0.372,0.333,0.696,0.588,0.97
	s0.563,0.49,0.926,0.646c0.362,0.157,0.769,0.235,1.22,0.235c0.373,0,0.722-0.029,1.049-0.088c0.327-0.059,0.624-0.167,0.892-0.323
	v-2.333h-1.666v-0.588h2.313V73.761z"/>
<path class="st0" d="M80.247,67.273h0.833l4.224,6.076h0.02v-6.076h0.647v6.938h-0.833l-4.224-6.076h-0.02v6.076h-0.646V67.273z"/>
<path class="st0" d="M102.874,72.504l1.694,1.708h-1.358l-0.882-0.924c-0.327,0.401-0.684,0.684-1.071,0.847
	c-0.387,0.164-0.81,0.245-1.267,0.245c-0.317,0-0.618-0.047-0.903-0.14s-0.534-0.231-0.749-0.413
	c-0.215-0.182-0.385-0.406-0.511-0.672s-0.189-0.567-0.189-0.903c0-0.513,0.147-0.94,0.441-1.281
	c0.294-0.34,0.679-0.642,1.155-0.903c-0.261-0.308-0.455-0.597-0.581-0.868c-0.126-0.271-0.189-0.56-0.189-0.868
	c0-0.532,0.18-0.952,0.539-1.26s0.814-0.462,1.365-0.462c0.56,0,1.01,0.145,1.351,0.434c0.341,0.29,0.511,0.7,0.511,1.232
	c0,0.224-0.044,0.432-0.133,0.623c-0.089,0.191-0.206,0.369-0.35,0.532c-0.145,0.163-0.315,0.31-0.511,0.441
	c-0.196,0.131-0.396,0.247-0.602,0.35l1.582,1.624l0.938-1.638h1.078L102.874,72.504z M99.809,70.684
	c-0.43,0.215-0.73,0.45-0.903,0.707s-0.259,0.548-0.259,0.875c0,0.383,0.126,0.693,0.378,0.931c0.252,0.238,0.579,0.357,0.98,0.357
	c0.383,0,0.712-0.077,0.987-0.231c0.275-0.154,0.511-0.38,0.707-0.679L99.809,70.684z M101.278,68.276
	c0-0.271-0.089-0.483-0.266-0.637c-0.178-0.154-0.388-0.231-0.63-0.231s-0.464,0.089-0.665,0.266
	c-0.201,0.178-0.301,0.411-0.301,0.7c0,0.383,0.214,0.803,0.644,1.26c0.438-0.214,0.751-0.432,0.938-0.651
	C101.185,68.764,101.278,68.528,101.278,68.276z"/>
<path class="st0" d="M116.617,67.273h2.146c0.601,0,1.11,0.074,1.529,0.221c0.418,0.147,0.766,0.335,1.043,0.563
	s0.497,0.482,0.657,0.759c0.16,0.278,0.277,0.544,0.353,0.799s0.123,0.485,0.142,0.691c0.02,0.206,0.03,0.351,0.03,0.436
	s-0.01,0.23-0.03,0.436c-0.02,0.206-0.067,0.436-0.142,0.691s-0.192,0.521-0.353,0.799s-0.379,0.531-0.657,0.759
	c-0.278,0.229-0.625,0.417-1.043,0.563c-0.418,0.147-0.928,0.221-1.529,0.221h-2.146V67.273z M117.264,73.624h1.333
	c0.458,0,0.885-0.057,1.284-0.171c0.398-0.114,0.745-0.29,1.039-0.524c0.294-0.235,0.526-0.534,0.696-0.897
	c0.17-0.362,0.255-0.792,0.255-1.289s-0.085-0.926-0.255-1.289c-0.17-0.363-0.402-0.662-0.696-0.897
	c-0.294-0.235-0.64-0.41-1.039-0.524c-0.399-0.114-0.827-0.172-1.284-0.172h-1.333V73.624z"/>
<path class="st0" d="M126.593,67.273h4.243v0.588h-3.596v2.47h3.371v0.588h-3.371v2.705h3.752v0.588h-4.399V67.273z"/>
<path class="st0" d="M134.051,67.273h0.695l2.234,6.086l2.255-6.086h0.686l-2.636,6.938h-0.647L134.051,67.273z"/>
<path class="st0" d="M143.468,67.273h4.244v0.588h-3.597v2.47h3.371v0.588h-3.371v2.705h3.753v0.588h-4.4V67.273z"/>
<path class="st0" d="M151.906,67.273h0.647v6.351h3.233v0.588h-3.881V67.273z"/>
<path class="st0" d="M158.982,70.743c0-0.529,0.088-1.016,0.265-1.46c0.176-0.444,0.421-0.828,0.734-1.152
	c0.314-0.323,0.691-0.576,1.132-0.759c0.441-0.183,0.927-0.274,1.456-0.274s1.014,0.091,1.455,0.274
	c0.44,0.183,0.818,0.436,1.132,0.759c0.313,0.324,0.559,0.708,0.735,1.152c0.176,0.444,0.265,0.931,0.265,1.46
	s-0.089,1.018-0.265,1.465c-0.177,0.447-0.422,0.833-0.735,1.156s-0.691,0.575-1.132,0.754c-0.441,0.18-0.926,0.27-1.455,0.27
	s-1.015-0.09-1.456-0.27c-0.44-0.18-0.817-0.431-1.132-0.754c-0.313-0.323-0.559-0.709-0.734-1.156
	C159.07,71.76,158.982,71.272,158.982,70.743z M159.628,70.743c0,0.431,0.068,0.833,0.206,1.206c0.137,0.372,0.333,0.696,0.588,0.97
	s0.563,0.49,0.926,0.646c0.363,0.157,0.77,0.235,1.221,0.235c0.45,0,0.857-0.079,1.22-0.235s0.671-0.372,0.926-0.646
	s0.451-0.598,0.588-0.97c0.138-0.373,0.206-0.774,0.206-1.206s-0.068-0.833-0.206-1.206c-0.137-0.372-0.333-0.696-0.588-0.97
	s-0.563-0.49-0.926-0.646s-0.77-0.235-1.22-0.235c-0.451,0-0.857,0.079-1.221,0.235c-0.362,0.157-0.671,0.372-0.926,0.646
	s-0.451,0.598-0.588,0.97C159.697,69.91,159.628,70.312,159.628,70.743z"/>
<path class="st0" d="M170.232,67.273h2c0.241,0,0.494,0.028,0.759,0.083s0.507,0.152,0.726,0.289s0.398,0.325,0.539,0.563
	s0.211,0.538,0.211,0.896c0,0.314-0.058,0.585-0.172,0.813c-0.114,0.229-0.268,0.417-0.461,0.563
	c-0.192,0.147-0.415,0.256-0.666,0.329c-0.252,0.072-0.515,0.107-0.789,0.107h-1.499v3.293h-0.647V67.273z M170.879,70.331h1.47
	c0.183,0,0.362-0.021,0.539-0.063s0.333-0.111,0.471-0.206c0.137-0.095,0.248-0.22,0.333-0.377c0.085-0.157,0.127-0.349,0.127-0.578
	c0-0.222-0.044-0.412-0.132-0.568s-0.203-0.286-0.343-0.387c-0.141-0.101-0.303-0.174-0.485-0.22
	c-0.184-0.046-0.366-0.069-0.549-0.069h-1.431V70.331z"/>
<path class="st0" d="M178.415,67.273h0.971l2.528,5.821l2.528-5.821h0.921v6.938h-0.646v-6.115h-0.02l-2.646,6.115h-0.284
	l-2.685-6.115h-0.021v6.115h-0.646V67.273z"/>
<path class="st0" d="M189.822,67.273h4.244v0.588h-3.597v2.47h3.371v0.588h-3.371v2.705h3.753v0.588h-4.4V67.273z"/>
<path class="st0" d="M198.259,67.273h0.833l4.225,6.076h0.02v-6.076h0.646v6.938h-0.833l-4.224-6.076h-0.02v6.076h-0.647V67.273z"/>
<path class="st0" d="M210.049,67.861h-2.372v-0.588h5.391v0.588h-2.372v6.351h-0.646V67.861z"/>
<path class="st0" d="M46.513,84.413h-8.188v-5.521h22.7v5.521h-8.188v22.8h-6.323V84.413z"/>
<path class="st0" d="M75.211,78.892h5.229l12.485,28.32h-7.134l-2.473-6H72.171l-2.392,6h-6.972L75.211,78.892z M77.644,87.133
	l-3.486,8.8h7.013L77.644,87.133z"/>
<path class="st0" d="M100.871,78.892h10.661c1.486,0,2.891,0.134,4.216,0.4c1.324,0.267,2.479,0.727,3.466,1.38
	c0.986,0.653,1.77,1.534,2.351,2.64c0.581,1.107,0.872,2.5,0.872,4.181c0,1.653-0.271,3.04-0.811,4.16
	c-0.541,1.119-1.284,2.014-2.229,2.68c-0.946,0.667-2.067,1.14-3.364,1.42c-1.297,0.28-2.703,0.42-4.216,0.42h-4.621v11.04h-6.324
	V78.892z M107.195,90.892h4.216c0.567,0,1.115-0.053,1.642-0.16c0.527-0.105,1-0.286,1.419-0.539
	c0.418-0.254,0.756-0.601,1.013-1.04c0.257-0.44,0.385-0.993,0.385-1.66c0-0.721-0.169-1.3-0.507-1.74
	c-0.338-0.44-0.77-0.78-1.297-1.021c-0.527-0.239-1.115-0.393-1.764-0.46c-0.648-0.065-1.271-0.1-1.865-0.1h-3.243V90.892z"/>
<path class="st0" d="M131.516,78.892h6.323v22.561h11.715v5.76h-18.038V78.892z"/>
<path class="st0" d="M158.553,78.892h19.497v5.761h-13.174v5.279h12.444v5.761h-12.444v5.76h13.904v5.76h-20.228V78.892z"/>
<path class="st0" d="M196.169,95.133l-10.782-16.24h7.864l6.08,10.601l6.445-10.601h7.499l-10.782,16.24v12.08h-6.324V95.133z"/>
</svg>
